<?xml version="1.0" encoding="utf-8"?>
<svg version="1.1" id="Layer_1" xmlns="http://www.w3.org/2000/svg" xmlns:xlink="http://www.w3.org/1999/xlink" x="0px" y="0px"
	 width="200px" height="200px" viewBox="0 0 200 200" enable-background="new 0 0 200 200" xml:space="preserve">
<path fill="#424242" d="M0,73.313h73.313L97.75,97.75V0H0V73.313z"/>
<path fill="#424242" d="M140,80c-16.576,0-30,16.8-30,37.5c0,20.7,13.424,37.501,30,37.501s30.001-16.801,30.001-37.501
	C170.001,96.8,156.576,80,140,80z M171.426,155c-8.25,8.999-19.425,15.001-31.426,15.001c-12,0-23.176-6.002-31.425-15.001
	C92.826,155.75,80,169.25,80,185v15h120v-15C200,169.25,187.174,155.75,171.426,155z"/>
</svg>
