<?xml version="1.0" encoding="utf-8"?>
<svg version="1.1" id="Layer_1" xmlns="http://www.w3.org/2000/svg" xmlns:xlink="http://www.w3.org/1999/xlink" x="0px" y="0px"
	 width="200px" height="200px" viewBox="0 0 200 200" enable-background="new 0 0 200 200" xml:space="preserve">
<path fill="#424242" d="M79.147,12.5v68.75c0,3.5-2.75,6.25-6.25,6.25s-6.25-2.75-6.25-6.25V25c0-6.875-5.625-12.5-12.5-12.5
	c-6.875,0-12.5,5.625-12.5,12.5v68.75c0,3.5-2.75,6.25-6.25,6.25c-3.5,0-6.251-2.749-6.251-6.25V37.5c0-6.875-5.625-12.5-12.5-12.5
	c-6.875,0-12.5,5.625-12.5,12.5v93.75c0,38.001,30.75,68.75,68.75,68.75c16.75,0,32.124-5.999,44.125-15.999
	c0,0,53.873-46.251,71.123-62.501c5.002-4.75,4.877-13.126,0-18c-4.873-4.875-13.123-4.875-17.998,0c0,0-13.127,10.876-16,13.25
	c-5,3.999-12.5,1.375-12.5-4.251V25c0-6.875-5.625-12.5-12.502-12.5c-6.873,0-12.498,5.625-12.498,12.5v56.25
	c0,3.5-2.752,6.25-6.252,6.25c-3.498,0-6.248-2.75-6.248-6.25V12.5c0-6.875-5.625-12.5-12.5-12.5C84.773,0,79.147,5.625,79.147,12.5
	z"/>
</svg>
