<?xml version="1.0" encoding="utf-8"?>
<svg version="1.1" id="Layer_1" xmlns="http://www.w3.org/2000/svg" xmlns:xlink="http://www.w3.org/1999/xlink" x="0px" y="0px"
	 width="200px" height="200px" viewBox="0 0 200 200" enable-background="new 0 0 200 200" xml:space="preserve">
<path fill="#424242" d="M110,27.5C110,12.376,97.694,0,82.5,0c-7.563,0-14.369,3.025-19.319,7.976
	C58.231,12.926,55.825,18.7,55,20.625c-0.825-1.925-3.231-7.699-8.181-12.649C41.869,3.025,35.063,0,27.5,0
	C19.938,0,13.131,3.025,8.182,7.976H7.975C3.025,12.926,0,19.938,0,27.5c0,7.562,3.025,14.369,7.975,19.318L55,93.913l46.819-47.094
	C106.77,41.869,110,35.062,110,27.5z"/>
<path fill="#424242" d="M140,80c-16.576,0-30,16.8-30,37.5c0,20.7,13.424,37.501,30,37.501s30.001-16.801,30.001-37.501
	C170.001,96.8,156.576,80,140,80z M171.426,155c-8.25,8.999-19.425,15.001-31.426,15.001c-12,0-23.176-6.002-31.425-15.001
	C92.826,155.75,80,169.25,80,185v15h120v-15C200,169.25,187.174,155.75,171.426,155z"/>
</svg>
