<?xml version="1.0" encoding="utf-8"?>
<svg version="1.1" id="Layer_1" xmlns="http://www.w3.org/2000/svg" xmlns:xlink="http://www.w3.org/1999/xlink" x="0px" y="0px"
	 width="200px" height="200px" viewBox="0 0 200 200" enable-background="new 0 0 200 200" xml:space="preserve">
<path fill="#424242" d="M25,68.75C25,86,36.25,100,50,100c5.375,0,10.375-2.25,14.5-5.875c-1.125-4.125-2-8.375-2-12.875
	c0-10.75,3.5-20.5,9-28.125C67.125,43.875,59.25,37.5,50,37.5C36.25,37.5,25,51.5,25,68.75z M128.5,53.125
	c5.5,7.625,9,17.375,9,28.125c0,4.5-0.875,8.75-2,12.875C139.625,97.75,144.625,100,150,100c13.75,0,25-14,25-31.25
	S163.75,37.5,150,37.5C140.75,37.5,132.875,43.875,128.5,53.125z M75,81.25c0,17.25,11.25,31.25,25,31.25s25-14,25-31.25
	S113.75,50,100,50S75,64,75,81.25z M0,125v25h37.5v-12.5c0-9.75,4-18.75,10.125-25.375C38.5,111.375,30.125,107,23.875,100
	C10.625,100.5,0,111.5,0,125z M152.375,112.125c6.125,6.75,10.125,15.625,10.125,25.375V150H200v-25c0-13.5-10.5-24.375-23.75-25
	C170,107,161.5,111.375,152.375,112.125z M50,137.5v25h100v-25c0-13.5-10.5-24.375-23.75-25C119.5,120.125,110.125,125,100,125
	s-19.375-4.875-26.125-12.5C60.625,113,50,124,50,137.5z"/>
</svg>
