<?xml version="1.0" encoding="utf-8"?>
<svg version="1.1" id="Layer_1" xmlns="http://www.w3.org/2000/svg" xmlns:xlink="http://www.w3.org/1999/xlink" x="0px" y="0px"
	 width="200px" height="200px" viewBox="0 0 200 200" enable-background="new 0 0 200 200" xml:space="preserve">
<path fill="#424242" d="M41.555,6.926v38.092c0,1.94-1.523,3.463-3.463,3.463s-3.463-1.523-3.463-3.463V13.852
	c0-3.809-3.116-6.926-6.926-6.926c-3.809,0-6.925,3.117-6.925,6.926v38.092c0,1.939-1.523,3.463-3.463,3.463
	c-1.939,0-3.463-1.523-3.463-3.463V20.778c0-3.81-3.118-6.926-6.926-6.926C3.116,13.852,0,16.968,0,20.778v51.943
	c0,21.055,17.038,38.091,38.092,38.091c9.28,0,17.799-3.322,24.448-8.864c0,0,29.85-25.626,39.407-34.629
	c2.772-2.632,2.701-7.272,0-9.973c-2.698-2.701-7.271-2.701-9.972,0c0,0-7.273,6.026-8.866,7.341
	c-2.769,2.215-6.925,0.762-6.925-2.355v-48.48c0-3.809-3.117-6.926-6.928-6.926c-3.807,0-6.924,3.117-6.924,6.926v31.166
	c0,1.94-1.524,3.463-3.464,3.463c-1.938,0-3.462-1.523-3.462-3.463V6.926C55.407,3.117,52.291,0,48.481,0
	C44.673,0,41.555,3.117,41.555,6.926z"/>
<path fill="#424242" d="M140,80c-16.576,0-30,16.8-30,37.5c0,20.7,13.424,37.501,30,37.501s30.001-16.801,30.001-37.501
	C170.001,96.8,156.576,80,140,80z M171.426,155c-8.25,8.999-19.425,15.001-31.426,15.001c-12,0-23.176-6.002-31.425-15.001
	C92.826,155.75,80,169.25,80,185v15h120v-15C200,169.25,187.174,155.75,171.426,155z"/>
</svg>
