<?xml version="1.0" encoding="utf-8"?>
<svg version="1.1" id="Layer_1" xmlns="http://www.w3.org/2000/svg" xmlns:xlink="http://www.w3.org/1999/xlink" x="0px" y="0px"
	 width="200px" height="200px" viewBox="0 0 200 200" enable-background="new 0 0 200 200" xml:space="preserve">
<path fill="#424242" d="M53.822,19.228c-2.283,0.813-4.143,3.439-4.143,5.878c0,3.455,2.798,6.253,6.252,6.253
	c0.907,0,2.282-0.375,3.08-0.813L99.656,11.99c2.079-0.906,3.752-3.471,3.752-5.737c0-3.455-2.799-6.253-6.253-6.253
	c-0.938,0-1.939,0.251-2.689,0.61L53.822,19.228z M141.315,3.596L53.775,44.24c-2.079,0.907-3.767,3.47-3.767,5.737
	c0,3.455,2.798,6.253,6.252,6.253c0.813,0,2.064-0.313,2.798-0.672l87.54-40.644c2.049-0.908,3.722-3.456,3.722-5.707
	c0-3.548-2.876-6.269-6.487-6.269C142.988,2.939,141.988,3.252,141.315,3.596z M141.315,28.608L53.775,69.251
	c-2.079,0.907-3.767,3.471-3.767,5.737c0,3.455,2.798,6.252,6.252,6.252c0.813,0,2.064-0.313,2.798-0.671l87.54-40.645
	c2.049-0.906,3.722-3.454,3.722-5.706c0-3.548-2.876-6.268-6.487-6.268C142.988,27.951,141.988,28.263,141.315,28.608z
	 M141.315,53.619L53.775,94.263c-2.079,0.907-3.767,3.471-3.767,5.737c0,3.454,2.798,6.252,6.252,6.252
	c0.813,0,2.064-0.313,2.798-0.673l87.54-40.643c2.049-0.907,3.722-3.455,3.722-5.706c0-3.549-2.876-6.269-6.487-6.269
	C142.988,52.962,141.988,53.275,141.315,53.619z M81.429,106.174v21.494v0.205v0.187h-7.816c-2.595,0-4.331,2.096-3.909,4.644
	l1.563,9.474c0.422,2.547,2.877,4.642,5.472,4.642h18.947l-21.104,3.956c-1.406,0.266-2.548,1.642-2.548,3.078
	c0,1.736,1.407,3.142,3.142,3.142c0.156,0,0.422-0.03,0.579-0.062l50.023-9.38c0.501-0.077,1.22-0.404,1.61-0.734h-3.752
	c2.595,0,5.049-2.095,5.473-4.642l1.562-9.474c0.423-2.548-1.313-4.644-3.908-4.644h-7.815v-0.187v-0.205v-25.261l27.591-12.396
	c1.609-0.672,3.268-2.595,3.675-4.299v-2.892c-0.643-2.752-3.378-4.847-6.285-4.847c-0.844,0-1.86,0.266-2.563,0.594l-31.265,14.069
	c-2.017,0.922-3.659,3.486-3.659,5.707v0.014v29.31v0.205v0.187H93.934v-0.187v-0.205v-21.494v-0.093
	c0-3.454-2.797-6.253-6.252-6.253c-3.471,0-6.253,2.83-6.253,6.253V106.174z M74.582,165.624c-1.406,0.266-2.548,1.641-2.548,3.08
	c0,1.735,1.407,3.127,3.142,3.127c0.156,0,0.422-0.016,0.579-0.049l50.023-9.377c1.548-0.158,2.814-1.563,2.814-3.127
	c0-1.734-1.393-3.126-3.127-3.126c-0.297,0-0.61,0.03-0.859,0.094L74.582,165.624z M74.582,181.257
	c-1.406,0.266-2.548,1.642-2.548,3.08c0,1.734,1.407,3.124,3.142,3.124c0.156,0,0.422-0.015,0.579-0.046l50.023-9.38
	c1.548-0.155,2.814-1.561,2.814-3.124c0-1.737-1.393-3.129-3.127-3.129c-0.297,0-0.61,0.033-0.859,0.095L74.582,181.257z
	 M81.179,193.763c-1.548,0.156-2.799,1.548-2.799,3.111c0,1.717,1.407,3.126,3.127,3.126c0.203,0,0.516-0.03,0.704-0.079
	l37.267-6.253c1.641-0.094,2.955-1.484,2.955-3.126c0-1.735-1.392-3.141-3.127-3.141c-0.312,0-0.642,0.045-0.906,0.108
	L81.179,193.763z"/>
</svg>
