<?xml version="1.0" encoding="utf-8"?>
<svg version="1.1" xmlns="http://www.w3.org/2000/svg" xmlns:xlink="http://www.w3.org/1999/xlink" x="0px" y="0px"
	 width="200px" height="200px" viewBox="0 0 200 200" enable-background="new 0 0 200 200" xml:space="preserve">
<path fill="#424242" d="M118.17,1.991L43.497,39.328c-3.858,1.866-7.094,6.97-7.094,11.325c0,6.97,5.601,12.57,12.57,12.57
	c1.618,0,3.983-0.498,5.352-1.245l74.673-37.336c5.352-1.245,9.708-6.721,9.708-12.197C138.706,5.601,133.105,0,126.26,0
	c-1.866,0-3.484,0.249-4.979,0.871C120.41,1.12,119.042,1.493,118.17,1.991z M143.062,39.452L43.497,89.234
	c-3.858,1.867-7.094,6.846-7.094,11.201c0,6.97,5.601,12.57,12.57,12.57c1.618,0,3.983-0.498,5.352-1.245l99.565-49.782
	c5.352-1.244,9.707-6.721,9.707-12.196c0-6.845-5.601-12.445-12.445-12.445c-0.498,0-1.369,0-1.867,0.124
	C147.169,37.71,144.804,38.581,143.062,39.452z M73.864,131.55v6.223H55.196c-3.485,0-4.979,2.364-3.485,5.476l6.969,13.939
	c1.494,3.111,5.476,5.476,8.961,5.476h62.228c3.484,0,7.468-2.364,8.961-5.476l6.97-13.939c1.493-3.111,0-5.476-3.484-5.476h-18.669
	v-17.051l17.922-8.961c5.352-1.244,9.583-6.721,9.583-12.196c0-6.845-5.601-12.445-12.445-12.445c-0.498,0-1.369,0-1.867,0.124
	c-2.116,0.249-4.48,1.12-6.223,1.991l-24.892,12.445c-3.857,1.867-6.969,6.846-6.969,11.201v16.429
	c-0.996-5.726-6.472-10.579-12.321-10.579c-7.219,0-12.57,6.223-12.57,12.57V131.55z M98.755,200
	c13.69,0,24.891-11.201,24.891-24.891H73.864C73.864,188.799,85.065,200,98.755,200z"/>
</svg>
