<?xml version="1.0" encoding="utf-8"?>
<svg version="1.1" id="Layer_1" xmlns="http://www.w3.org/2000/svg" xmlns:xlink="http://www.w3.org/1999/xlink" x="0px" y="0px"
	 width="200px" height="200px" viewBox="0 0 200 200" enable-background="new 0 0 200 200" xml:space="preserve">
<path fill="#424242" d="M196.683,72.798c0-26.587-21.631-48.342-48.341-48.342c-13.293,0-25.258,5.318-33.96,14.021
	c-8.702,8.7-12.932,18.852-14.382,22.235c-1.45-3.383-5.68-13.535-14.381-22.235c-8.701-8.703-20.666-14.021-33.96-14.021
	S26.4,29.774,17.699,38.477h-0.362c-8.702,8.7-14.02,21.027-14.02,34.321s5.317,25.259,14.02,33.96L100,189.544l82.302-82.786
	C191.003,98.057,196.683,86.092,196.683,72.798z"/>
</svg>
