<?xml version="1.0" encoding="utf-8"?>
<!-- Generator: Adobe Illustrator 14.0.0, SVG Export Plug-In . SVG Version: 6.00 Build 43363)  -->
<!DOCTYPE svg PUBLIC "-//W3C//DTD SVG 1.1//EN" "http://www.w3.org/Graphics/SVG/1.1/DTD/svg11.dtd">
<svg version="1.1" id="Layer_1" xmlns="http://www.w3.org/2000/svg" xmlns:xlink="http://www.w3.org/1999/xlink" x="0px" y="0px"
	 width="200px" height="200px" viewBox="0 0 200 200" enable-background="new 0 0 200 200" xml:space="preserve">
<path fill="#424242" d="M115,33.5C115,18.376,102.693,6,87.5,6c-7.563,0-14.369,3.025-19.319,7.976
	C63.231,18.926,60.825,24.7,60,26.625c-0.825-1.925-3.231-7.699-8.181-12.649C46.869,9.025,40.063,6,32.5,6
	c-7.562,0-14.369,3.025-19.318,7.976h-0.207C8.025,18.926,5,25.938,5,33.5s3.025,14.369,7.975,19.318L60,99.913l46.818-47.094
	C111.77,47.869,115,41.062,115,33.5z"/>
<path fill="#424242" d="M140,80c-16.576,0-30,16.8-30,37.5s13.424,37.501,30,37.501s30.001-16.801,30.001-37.501S156.576,80,140,80z
	 M171.426,155c-8.25,8.999-19.425,15.001-31.426,15.001c-12,0-23.176-6.002-31.425-15.001C92.826,155.75,80,169.25,80,185v15h120
	v-15C200,169.25,187.174,155.75,171.426,155z"/>
</svg>
