<?xml version="1.0" encoding="utf-8"?>
<!-- Generator: Adobe Illustrator 14.0.0, SVG Export Plug-In . SVG Version: 6.00 Build 43363)  -->
<!DOCTYPE svg PUBLIC "-//W3C//DTD SVG 1.1//EN" "http://www.w3.org/Graphics/SVG/1.1/DTD/svg11.dtd">
<svg version="1.1" id="Layer_1" xmlns="http://www.w3.org/2000/svg" xmlns:xlink="http://www.w3.org/1999/xlink" x="0px" y="0px"
	 width="200px" height="200px" viewBox="0 0 200 200" enable-background="new 0 0 200 200" xml:space="preserve">
<path fill="#9E9E9E" d="M49.973,164.742c0.348,0,0.695-0.223,1.006-0.658l32.727-53.82c0.62-0.867,0.137-1.622-0.855-1.622H59.898
	v-29.61h-19.85v29.609H17.096c-0.992,0-1.352,0.756-0.855,1.623l32.716,53.82C49.267,164.52,49.625,164.742,49.973,164.742z"/>
<path fill="#9E9E9E" d="M148.957,35.658l-32.717,53.82c-0.497,0.867-0.137,1.623,0.855,1.623h22.953v29.61h19.849V91.102h22.952
	c0.992,0,1.476-0.755,0.855-1.623l-32.727-53.821c-0.311-0.436-0.657-0.658-1.005-0.658C149.625,35,149.269,35.222,148.957,35.658z"
	/>
<g>
	<rect x="20" fill="#9E9E9E" width="20" height="16"/>
	<rect x="60" fill="#9E9E9E" width="20" height="16"/>
	<rect x="180" fill="#9E9E9E" width="20" height="16"/>
	<rect x="100" fill="#9E9E9E" width="20" height="16"/>
	<rect x="140" fill="#9E9E9E" width="20" height="16"/>
</g>
<g>
	<rect x="80" y="184" fill="#9E9E9E" width="20" height="16"/>
	<rect x="40" y="184" fill="#9E9E9E" width="20" height="16"/>
	<rect x="120" y="184" fill="#9E9E9E" width="20" height="16"/>
	<rect y="184" fill="#9E9E9E" width="20" height="16"/>
	<rect x="160" y="184" fill="#9E9E9E" width="20" height="16"/>
</g>
</svg>
